<svg xmlns="http://www.w3.org/2000/svg" viewBox="0 0 144 144"><path fill="#F78F1E" d="M128.8 35.3v-1c0-.2-.2-.4-.2-.6s-.2-.2-.2-.4v-.2c-.2-.2-.4-.6-.6-.8h-.2c-.2-.2-.6-.4-1-.4L73 14.7c-.6-.2-1.4-.2-2 0L17.4 31.9c-.4.2-.6.2-.8.4 0 0-.2 0-.2.2-.2.2-.4.4-.6.8v.2s-.2.2-.2.4-.2.4-.2.6c0 .4-.2.8-.2 1l4.6 64.6c0 1.2.8 2.2 1.8 2.8l49.2 26.4h.2s.4.2.6.2h2c.2 0 .4-.2.6-.2h.2l49.2-26.4c1-.6 1.8-1.6 1.8-2.8l3.4-64.8zM71.6 21.5l14.2 4.6L42 43.3l-15-7.4 44.6-14.4zm-3.4 98.8L25.8 97.5l-4-56.6 15.8 7.8 1.2 20.2L52 76.1l-.4-20.4 16.6 8.2v56.4zm3.4-62.6L56 49.9l43.4-19.6 16.8 5.4-44.6 22zm45.8 39.8L75 120.3V63.9l46.4-22.8-4 56.4z"/></svg>