<svg xmlns="http://www.w3.org/2000/svg" viewBox="0 0 144 144"><path fill="#F78F1E" d="M77.5 65.4v-28c5 .8 9.8 3 14.8 6.6 1 .8 2 1 2.8 1 2.8 0 4.8-2 4.8-4.6 0-2.2-1.4-3.4-2.6-4.2-6.4-4.4-12.4-6.6-19.6-7.6v-3.4c0-2.2-2-4.2-4.2-4.2s-4.2 2-4.2 4.2v3.2c-14.4.8-24.6 9.8-24.6 22s7.2 18.8 24.8 23.2V102c-7.2-1-13.4-3.8-20-9.4-.4-.4-1.6-1-3-1-2.6 0-4.8 2-4.8 4.6 0 1.6.8 3 2.2 4 7.8 6.2 16.2 9.6 25.2 10.4v8.2c0 2.2 2 4.2 4.2 4.2s4.2-2 4.2-4.2V111c15-1.2 24.8-10.2 24.8-22.4.4-12.4-7-19.2-24.8-23.2zM92.9 89c0 7.4-6 12.6-15.4 13.4V75.2C90.3 78.6 92.9 83 92.9 89zm-23-52v26.4c-12.6-3.4-15-7.6-15-13.8 0-7 6-12 15-12.6z"/></svg>